<?xml version="1.0" encoding="UTF-8"?>
<svg version="1.1" xmlns="http://www.w3.org/2000/svg" width="128" height="128">
<path d="M0 0 C42.24 0 84.48 0 128 0 C128 42.24 128 84.48 128 128 C85.76 128 43.52 128 0 128 C0 85.76 0 43.52 0 0 Z " fill="#FEFEFE" transform="translate(0,0)"/>
<path d="M0 0 C13.86 0 27.72 0 42 0 C42 2.31 42 4.62 42 7 C41.38511719 7.03738281 40.77023438 7.07476563 40.13671875 7.11328125 C39.32847656 7.17902344 38.52023438 7.24476562 37.6875 7.3125 C36.88699219 7.37050781 36.08648437 7.42851562 35.26171875 7.48828125 C32.50389705 8.11224436 31.55789867 8.6354224 30 11 C29.45710825 16.47228612 31.05108773 20.85147459 32.8515625 25.921875 C33.14807709 26.78073303 33.44459167 27.63959106 33.75009155 28.5244751 C34.69976666 31.26940219 35.66196869 34.00973379 36.625 36.75 C37.24956865 38.54527023 37.8732743 40.34084094 38.49609375 42.13671875 C39.42281095 44.80805963 40.34979658 47.47929951 41.27894592 50.14979553 C43.32807937 56.04291813 45.35756453 61.94212841 47.34765625 67.85546875 C47.5901712 68.56858215 47.83268616 69.28169556 48.08255005 70.01641846 C49.9195923 75.50870083 51.2879951 81.0162671 52.45703125 86.69140625 C52.77446936 88.94994763 52.77446936 88.94994763 54 90 C54.30260742 88.65687744 54.30260742 88.65687744 54.61132812 87.28662109 C57.25009723 76.13347969 60.74564317 65.37007502 64.49072266 54.54345703 C65.50490573 51.61081445 66.50908183 48.67488906 67.51171875 45.73828125 C68.16348707 43.83834417 68.81581129 41.93859768 69.46875 40.0390625 C69.76366333 39.17842194 70.05857666 38.31778137 70.36242676 37.43106079 C72.15339743 32.26263908 74.09880917 27.18709862 76.20069885 22.13668823 C77.17435026 19.53392766 77.50508089 17.2753217 77.4375 14.5 C77.43621094 13.6853125 77.43492188 12.870625 77.43359375 12.03125 C77.1625816 9.60433468 77.1625816 9.60433468 74 8 C71.72087062 7.54605448 71.72087062 7.54605448 69.3125 7.375 C68.10013672 7.26285156 68.10013672 7.26285156 66.86328125 7.1484375 C66.24839844 7.09945313 65.63351563 7.05046875 65 7 C65 4.69 65 2.38 65 0 C77.21 0 89.42 0 102 0 C102 2.31 102 4.62 102 7 C100.046875 7.09765625 98.09375 7.1953125 96.140625 7.29296875 C92.78520284 8.40123775 91.89661545 10.00475799 90 13 C88.39843798 16.67975083 87.1108896 20.45434484 85.8125 24.25 C85.40032227 25.42860596 84.98814453 26.60721191 84.56347656 27.8215332 C83.60127573 30.57434709 82.64632485 33.32955851 81.69580078 36.08642578 C79.73312201 41.77859125 77.75469145 47.46526089 75.77734375 53.15234375 C73.17957247 60.62672825 70.58629977 68.10264068 67.99971008 75.5809021 C66.33620401 80.38833253 64.66843688 85.19427908 63 90 C62.69473389 90.88093323 62.38946777 91.76186646 62.07495117 92.66949463 C61.23535655 95.08935015 60.39183634 97.50779534 59.546875 99.92578125 C59.30076477 100.63679489 59.05465454 101.34780853 58.80108643 102.08036804 C57.11487963 106.88512037 57.11487963 106.88512037 56 108 C54.14712498 108.07226502 52.29166122 108.0838122 50.4375 108.0625 C49.42558594 108.05347656 48.41367187 108.04445313 47.37109375 108.03515625 C46.58863281 108.02355469 45.80617187 108.01195313 45 108 C44.48167603 106.47475708 44.48167603 106.47475708 43.95288086 104.91870117 C37.32957571 85.43777578 30.6727722 65.96867308 23.90750122 46.53652954 C23.26769049 44.69854061 22.62857585 42.8603092 21.99020386 41.02182007 C20.26780133 36.06361904 18.53242902 31.11045771 16.77020264 26.16625977 C16.26972876 24.75863485 15.77297361 23.34968024 15.28057861 21.93920898 C14.63867151 20.10597602 13.97815178 18.27929057 13.31640625 16.453125 C12.78382202 14.96280762 12.78382202 14.96280762 12.24047852 13.44238281 C10.83543237 10.67598218 9.67452083 9.53865411 7 8 C3.34725531 7.27518916 3.34725531 7.27518916 0 7 C0 4.69 0 2.38 0 0 Z " fill="#BA3939" transform="translate(13,13)"/>
</svg>
